<svg width="212" height="80" viewBox="0 0 212 80" fill="none" xmlns="http://www.w3.org/2000/svg">
<path d="M39.462 1.34902C25.2763 3.68188 16.8805 5.95562 9.10602 20.4098C1.23297 34.8809 -0.396205 41.0964 2.04649 53.2366C4.51248 62.6679 8.22692 67.4877 17.2245 72.2974C30.1219 78.426 34.2725 78.7942 41.2269 79.0039C52.174 79.3495 56.55 77.0499 64.1704 70.8855C69.1289 66.7116 71.9212 64.6166 76.5246 53.2366C83.8088 33.8049 81.8976 24.4339 72.9948 14.7621C62.6562 3.96353 57.3135 -0.318625 39.462 1.34902Z" fill="#F28375" stroke="#F28375"/>
<path d="M26.464 11.595C28.8424 10.3775 34.151 15.9859 39.8771 20.0664C40.4863 14.6234 40.5048 11.117 44.8187 10.889C49.1332 10.7022 47.5384 15.1377 47.6426 19.7134C52.3494 17.0237 55.8753 14.3933 57.8789 15.1247C61.3237 17.1891 56.8173 20.4823 51.1723 25.714C57.1793 26.2906 60.2848 27.3596 59.9967 29.2438C59.9957 30.607 55.3403 31.295 47.9955 32.0676C53.7281 36.0392 54.6625 37.687 51.8783 39.4801C50.8378 39.9323 46.4889 37.1893 39.8771 33.1265C34.476 39.8474 30.9791 45.3411 28.2288 42.3039C26.8173 40.5193 28.5857 37.9529 33.8765 32.0676C27.3126 32.1618 22.9179 32.6394 22.2282 29.2438C21.6219 26.8928 26.6723 26.2709 31.7586 24.6551C26.9396 18.1943 22.3628 13.6446 26.464 11.595Z" fill="#819D6E" stroke="#819D6E"/>
<path d="M104.462 1.34902C90.2763 3.68188 81.8805 5.95562 74.106 20.4098C66.233 34.8809 64.6038 41.0964 67.0465 53.2366C69.5125 62.6679 73.2269 67.4877 82.2245 72.2974C95.1219 78.426 99.2725 78.7942 106.227 79.0039C117.174 79.3495 121.55 77.0499 129.17 70.8855C134.129 66.7116 136.921 64.6166 141.525 53.2366C148.809 33.8049 146.898 24.4339 137.995 14.7621C127.656 3.96353 122.314 -0.318625 104.462 1.34902Z" fill="#90B47E" stroke="#90B47E"/>
<path d="M91.464 11.595C93.8424 10.3775 99.151 15.9859 104.877 20.0664C105.486 14.6234 105.505 11.117 109.819 10.889C114.133 10.7022 112.538 15.1377 112.643 19.7134C117.349 17.0237 120.875 14.3933 122.879 15.1247C126.324 17.1891 121.817 20.4823 116.172 25.714C122.179 26.2906 125.285 27.3596 124.997 29.2438C124.996 30.607 120.34 31.295 112.996 32.0676C118.728 36.0392 119.663 37.687 116.878 39.4801C115.838 39.9323 111.489 37.1893 104.877 33.1265C99.476 39.8474 95.9791 45.3411 93.2288 42.3039C91.8173 40.5193 93.5857 37.9529 98.8765 32.0676C92.3126 32.1618 87.9179 32.6394 87.2282 29.2438C86.6219 26.8928 91.6723 26.2709 96.7586 24.6551C91.9396 18.1943 87.3628 13.6446 91.464 11.595Z" fill="#819D6E" stroke="#819D6E"/>
<path d="M169.462 1.34902C155.276 3.68188 146.88 5.95562 139.106 20.4098C131.233 34.8809 129.604 41.0964 132.046 53.2366C134.512 62.6679 138.227 67.4877 147.224 72.2974C160.122 78.426 164.273 78.7942 171.227 79.0039C182.174 79.3495 186.55 77.0499 194.17 70.8855C199.129 66.7116 201.921 64.6166 206.525 53.2366C213.809 33.8049 211.898 24.4339 202.995 14.7621C192.656 3.96353 187.314 -0.318625 169.462 1.34902Z" fill="#EFEAA5" stroke="#EFEAA5"/>
<path d="M156.464 11.595C158.842 10.3775 164.151 15.9859 169.877 20.0664C170.486 14.6234 170.505 11.117 174.819 10.889C179.133 10.7022 177.538 15.1377 177.643 19.7134C182.349 17.0237 185.875 14.3933 187.879 15.1247C191.324 17.1891 186.817 20.4823 181.172 25.714C187.179 26.2906 190.285 27.3596 189.997 29.2438C189.996 30.607 185.34 31.295 177.996 32.0676C183.728 36.0392 184.663 37.687 181.878 39.4801C180.838 39.9323 176.489 37.1893 169.877 33.1265C164.476 39.8474 160.979 45.3411 158.229 42.3039C156.817 40.5193 158.586 37.9529 163.876 32.0676C157.313 32.1618 152.918 32.6394 152.228 29.2438C151.622 26.8928 156.672 26.2709 161.759 24.6551C156.94 18.1943 152.363 13.6446 156.464 11.595Z" fill="#819D6E" stroke="#819D6E"/>
</svg>
