<svg width="115" height="113" viewBox="0 0 115 113" fill="none" xmlns="http://www.w3.org/2000/svg">
<path d="M55.4824 1.49439C35.388 4.79895 23.4951 8.01975 12.4824 28.4944C1.33001 48.9931 -0.977757 57.7975 2.48237 74.9944C5.97551 88.354 11.2371 95.1814 23.9824 101.994C42.2518 110.676 48.1313 111.197 57.9824 111.494C73.4891 111.984 79.6878 108.727 90.4824 99.9944C97.5063 94.082 101.461 91.1144 107.982 74.9944C118.301 47.4689 115.593 34.1946 102.982 20.4944C88.3374 5.19791 80.7695 -0.867864 55.4824 1.49439Z" fill="#90B47E" stroke="#90B47E"/>
<path d="M37.0703 16.0081C40.4394 14.2836 47.9592 22.228 56.0703 28.0081C56.9333 20.2979 56.9595 15.3311 63.0703 15.0081C69.1818 14.7434 66.9228 21.0265 67.0703 27.5081C73.7377 23.698 78.7322 19.972 81.5703 21.0081C86.4499 23.9324 80.0665 28.5972 72.0703 36.0081C80.5793 36.8249 84.9783 38.3391 84.5703 41.0081C84.5688 42.9391 77.9744 43.9137 67.5703 45.0081C75.6906 50.6339 77.0143 52.968 73.0703 55.5081C71.5964 56.1485 65.4361 52.263 56.0703 46.5081C48.4196 56.0284 43.4662 63.8103 39.5703 59.5081C37.5709 56.98 40.0759 53.3447 47.5703 45.0081C38.2724 45.1415 32.0473 45.818 31.0703 41.0081C30.2115 37.6778 37.3654 36.797 44.5703 34.5081C37.744 25.3562 31.2609 18.9114 37.0703 16.0081Z" fill="#819D6E" stroke="#819D6E"/>
</svg>
