<svg width="272" height="80" viewBox="0 0 272 80" fill="none" xmlns="http://www.w3.org/2000/svg">
<path d="M39.462 1.34902C25.2763 3.68188 16.8805 5.95562 9.10602 20.4098C1.23297 34.8809 -0.396205 41.0964 2.04649 53.2366C4.51248 62.6679 8.22692 67.4877 17.2245 72.2974C30.1219 78.426 34.2725 78.7942 41.2269 79.0039C52.174 79.3495 56.55 77.0499 64.1704 70.8855C69.1289 66.7116 71.9212 64.6166 76.5246 53.2366C83.8088 33.8049 81.8976 24.4339 72.9948 14.7621C62.6562 3.96353 57.3135 -0.318625 39.462 1.34902Z" fill="#F28375" stroke="#F28375"/>
<path d="M26.464 11.595C28.8424 10.3775 34.151 15.9859 39.8771 20.0664C40.4863 14.6234 40.5048 11.117 44.8187 10.889C49.1332 10.7022 47.5384 15.1377 47.6426 19.7134C52.3494 17.0237 55.8753 14.3933 57.8789 15.1247C61.3237 17.1891 56.8173 20.4823 51.1723 25.714C57.1793 26.2906 60.2848 27.3596 59.9967 29.2438C59.9957 30.607 55.3403 31.295 47.9955 32.0676C53.7281 36.0392 54.6625 37.687 51.8783 39.4801C50.8378 39.9323 46.4889 37.1893 39.8771 33.1265C34.476 39.8474 30.9791 45.3411 28.2288 42.3039C26.8173 40.5193 28.5857 37.9529 33.8765 32.0676C27.3126 32.1618 22.9179 32.6394 22.2282 29.2438C21.6219 26.8928 26.6723 26.2709 31.7586 24.6551C26.9396 18.1943 22.3628 13.6446 26.464 11.595Z" fill="#819D6E" stroke="#819D6E"/>
<path d="M134.462 1.34902C120.276 3.68188 111.88 5.95562 104.106 20.4098C96.233 34.8809 94.6038 41.0964 97.0465 53.2366C99.5125 62.6679 103.227 67.4877 112.224 72.2974C125.122 78.426 129.273 78.7942 136.227 79.0039C147.174 79.3495 151.55 77.0499 159.17 70.8855C164.129 66.7116 166.921 64.6166 171.525 53.2366C178.809 33.8049 176.898 24.4339 167.995 14.7621C157.656 3.96353 152.314 -0.318625 134.462 1.34902Z" fill="#90B47E" stroke="#90B47E"/>
<path d="M121.464 11.595C123.842 10.3775 129.151 15.9859 134.877 20.0664C135.486 14.6234 135.505 11.117 139.819 10.889C144.133 10.7022 142.538 15.1377 142.643 19.7134C147.349 17.0237 150.875 14.3933 152.879 15.1247C156.324 17.1891 151.817 20.4823 146.172 25.714C152.179 26.2906 155.285 27.3596 154.997 29.2438C154.996 30.607 150.34 31.295 142.996 32.0676C148.728 36.0392 149.663 37.687 146.878 39.4801C145.838 39.9323 141.489 37.1893 134.877 33.1265C129.476 39.8474 125.979 45.3411 123.229 42.3039C121.817 40.5193 123.586 37.9529 128.876 32.0676C122.313 32.1618 117.918 32.6394 117.228 29.2438C116.622 26.8928 121.672 26.2709 126.759 24.6551C121.94 18.1943 117.363 13.6446 121.464 11.595Z" fill="#819D6E" stroke="#819D6E"/>
<path d="M229.462 1.34902C215.276 3.68188 206.88 5.95562 199.106 20.4098C191.233 34.8809 189.604 41.0964 192.046 53.2366C194.512 62.6679 198.227 67.4877 207.224 72.2974C220.122 78.426 224.273 78.7942 231.227 79.0039C242.174 79.3495 246.55 77.0499 254.17 70.8855C259.129 66.7116 261.921 64.6166 266.525 53.2366C273.809 33.8049 271.898 24.4339 262.995 14.7621C252.656 3.96353 247.314 -0.318625 229.462 1.34902Z" fill="#EFEAA5" stroke="#EFEAA5"/>
<path d="M216.464 11.595C218.842 10.3775 224.151 15.9859 229.877 20.0664C230.486 14.6234 230.505 11.117 234.819 10.889C239.133 10.7022 237.538 15.1377 237.643 19.7134C242.349 17.0237 245.875 14.3933 247.879 15.1247C251.324 17.1891 246.817 20.4823 241.172 25.714C247.179 26.2906 250.285 27.3596 249.997 29.2438C249.996 30.607 245.34 31.295 237.996 32.0676C243.728 36.0392 244.663 37.687 241.878 39.4801C240.838 39.9323 236.489 37.1893 229.877 33.1265C224.476 39.8474 220.979 45.3411 218.229 42.3039C216.817 40.5193 218.586 37.9529 223.876 32.0676C217.313 32.1618 212.918 32.6394 212.228 29.2438C211.622 26.8928 216.672 26.2709 221.759 24.6551C216.94 18.1943 212.363 13.6446 216.464 11.595Z" fill="#819D6E" stroke="#819D6E"/>
</svg>
