<svg width="34" height="36" viewBox="0 0 34 36" fill="none" xmlns="http://www.w3.org/2000/svg">
<path d="M18.4656 0.873402C17.5784 0.374415 16.4216 0.376652 15.5336 0.873402C11.0861 3.32784 6.63852 5.78302 2.1902 8.23633C1.32461 8.69169 0.740797 9.62123 0.75011 10.586V25.416C0.74386 26.3996 1.35777 27.3381 2.24568 27.7873C3.52339 28.467 4.76475 29.2158 6.06555 29.8503C7.56814 30.5886 9.44804 30.7519 10.969 29.9819C12.2036 29.3438 12.752 27.9244 12.7504 26.62C12.7604 21.7258 12.752 16.8314 12.7542 11.937C12.7836 11.7195 12.6202 11.487 12.383 11.4923C11.8146 11.4833 11.2455 11.487 10.6771 11.4908C10.4624 11.4705 10.2527 11.6489 10.269 11.8648C10.2614 16.7275 10.2705 21.5918 10.2644 26.4553C10.2767 27.128 9.82225 27.7745 9.17391 28.0018C7.6765 28.5266 3.40247 25.7515 3.40247 25.7515C3.24562 25.6789 3.14602 25.5088 3.1614 25.3398C3.1614 20.447 3.16216 15.5541 3.1614 10.6621C3.13984 10.4649 3.2614 10.2873 3.44252 10.2067C7.87541 7.76675 12.306 5.32068 16.7389 2.8792C16.8929 2.77644 17.1075 2.77675 17.2611 2.87995C21.694 5.32068 26.1254 7.76452 30.559 10.2046C30.7408 10.285 30.8571 10.4656 30.8386 10.6621C30.8379 15.5541 30.8401 20.447 30.8371 25.3391C30.8503 25.5123 30.7607 25.68 30.5991 25.756C26.2076 28.1828 21.7661 30.5313 17.4144 33.0285C17.2245 33.1374 17.0094 33.2608 16.7966 33.1408C15.6522 32.5078 14.5217 31.8501 13.3811 31.211C13.2571 31.1336 13.0992 31.1004 12.9699 31.187C12.4585 31.4565 11.9775 31.6748 11.3902 31.9073C10.5655 32.2338 10.6972 32.3673 11.4411 32.8006C12.775 33.5555 14.1111 34.3074 15.445 35.063C16.3231 35.611 17.503 35.65 18.4094 35.1436C22.8576 32.6923 27.3045 30.238 31.7536 27.7866C32.6391 27.335 33.2561 26.4003 33.2499 25.4159V10.586C33.2585 9.6408 32.697 8.72784 31.8575 8.26574C27.3945 5.79934 22.9294 3.3383 18.4656 0.873402Z" fill="#8CC84B"/>
<path d="M25.1773 12.0077C23.4315 11.0737 21.3545 11.0239 19.4143 11.146C18.0127 11.2845 16.5386 11.6713 15.5175 12.676C14.4701 13.686 14.2421 15.317 14.7396 16.6355C15.0961 17.5673 15.9935 18.1732 16.9215 18.4937C18.1168 18.9157 19.3723 19.0462 20.6282 19.1767C21.7737 19.2957 22.9196 19.4148 24.0206 19.7552C24.4703 19.9042 24.9941 20.1322 25.1318 20.6215C25.2591 21.201 25.1196 21.8747 24.6491 22.2773C23.1546 23.4602 18.9973 23.2789 17.5207 22.3479C16.9237 21.9513 16.6665 21.2492 16.5618 20.58C16.5502 20.3715 16.3823 20.1803 16.156 20.1962C15.5891 20.1894 15.0222 20.1909 14.4553 20.1954C14.2576 20.1788 14.052 20.3195 14.0411 20.5214C13.9246 23.586 16.7392 24.922 19.3798 25.2162C20.8885 25.3599 22.4302 25.3517 23.9158 25.0279C25.0326 24.7737 26.1523 24.3054 26.9211 23.4453C27.8691 22.3999 28.0555 20.8435 27.6303 19.5414C27.3053 18.5698 26.3765 17.9465 25.427 17.6259C24.1357 17.1832 22.6055 16.9452 21.436 16.8338C19.7361 16.6719 17.7161 16.738 17.235 15.621C17.0431 15.0362 17.2063 14.3099 17.7438 13.9502C19.166 12.9855 22.0603 13.1137 23.5331 13.8343C24.2093 14.1729 24.6012 14.8684 24.763 15.5705C24.793 15.7768 24.9317 15.992 25.1705 15.983C25.7335 15.9943 26.2965 15.986 26.8593 15.9868C27.0527 16.0003 27.2645 15.8912 27.3022 15.6932C27.2783 14.2257 26.529 12.7234 25.1773 12.0077Z" fill="#8CC84B"/>
</svg>
