<svg width="35" height="35" viewBox="0 0 35 35" fill="none" xmlns="http://www.w3.org/2000/svg">
<path d="M9.64331 9.52875L7.38116 7.2666L7.39073 23.6182L7.41781 24.3824C7.42902 24.742 7.49573 25.1478 7.60702 25.5683L25.5314 31.8888L30.0119 29.9037L30.0136 29.8982L9.64331 9.52875Z" fill="#00D2B8"/>
<path d="M7.60701 25.5685L7.6081 25.5696C7.60701 25.5622 7.60318 25.554 7.60318 25.5464C7.60318 25.554 7.60427 25.5612 7.60701 25.5685ZM30.0119 29.9039L25.5314 31.889L7.6081 25.5696C7.95045 26.8832 8.70841 28.3598 9.52408 29.1672L15.3735 34.9833L28.3795 35.0002L30.0136 29.8984L30.0119 29.9039Z" fill="#55DDCA"/>
<path d="M0.414792 17.7893C-0.164348 18.4075 0.123308 19.6829 1.05573 20.6224L5.07772 24.6777L7.60702 25.5683C7.49573 25.1478 7.42901 24.742 7.4178 24.3824L7.39073 23.6182L7.38116 7.2666L0.414792 17.7893Z" fill="#0081C6"/>
<path d="M25.6785 7.47671C25.258 7.36925 24.8546 7.3028 24.4891 7.29132L23.6813 7.26343L7.38116 7.26562L30.0158 29.8983H30.0177L32.0056 25.4134L25.6785 7.47671Z" fill="#0079B3"/>
<path d="M25.658 7.47241C25.6667 7.47433 25.6736 7.47679 25.6793 7.47761L25.6785 7.47679C25.6736 7.47433 25.6667 7.47433 25.658 7.47241ZM29.2739 9.39714C28.4525 8.5689 26.9954 7.81612 25.6793 7.47761L32.0056 25.4135L30.0177 29.8984H30.0158L34.8737 28.3469L34.884 15.0283L29.2739 9.39714Z" fill="#00A4E4"/>
<path d="M24.7923 4.96274L20.738 0.938283C19.8004 0.00941569 18.5246 -0.279608 17.908 0.297892L7.38116 7.26563L23.6813 7.26344L24.4891 7.29133C24.8546 7.30281 25.258 7.36926 25.6785 7.47672L24.7923 4.96274Z" fill="#00D2B8"/>
</svg>
