<svg width="40" height="40" viewBox="0 0 40 40" fill="none" xmlns="http://www.w3.org/2000/svg">
<rect x="2" y="2" width="36" height="36" fill="white"/>
<path d="M40.0062 3.09865V1.3349C39.6475 1.3349 39.3025 1.19115 39.0562 0.943652C38.8075 0.697402 38.665 0.352402 38.665 -0.00634766H36.9012C36.8612 0.734902 36.23 1.30865 35.495 1.2699C34.805 1.23615 34.2512 0.683652 34.2187 -0.00634766H32.4487C32.4025 0.734902 31.77 1.3024 31.0287 1.2574C30.3525 1.2124 29.8125 0.671152 29.7725 -0.00634766H28.0087C27.9687 0.734902 27.3375 1.30865 26.595 1.2699C25.9112 1.23615 25.3587 0.683652 25.3187 -0.00634766H23.555C23.515 0.734902 22.89 1.30865 22.1487 1.2699C21.4587 1.23615 20.9125 0.683652 20.8725 -0.00634766H19.1087C19.0637 0.734902 18.4325 1.3024 17.6887 1.2574C17.0125 1.2124 16.4725 0.671152 16.425 -0.00634766H14.6612C14.6412 0.734902 14.0225 1.3149 13.2875 1.28865C12.5837 1.26365 12.0175 0.697402 11.9912 -0.00634766H10.2275C10.1875 0.734902 9.55624 1.30865 8.81374 1.2699C8.12999 1.23615 7.57749 0.683652 7.54374 -0.00634766H5.77999C5.74624 0.734902 5.12874 1.3149 4.39374 1.28865C3.68999 1.26365 3.12374 0.697402 3.09749 -0.00634766H1.33374C1.33374 0.352402 1.18999 0.697402 0.942493 0.943652C0.688743 1.1924 0.351243 1.3349 -0.00750732 1.3349V3.09865C0.733743 3.1324 1.30749 3.7499 1.28249 4.4849C1.26249 5.18865 0.696243 5.7549 -0.00750732 5.78115V7.5449C0.733743 7.57115 1.30749 8.1899 1.28249 8.93115C1.26249 9.6349 0.696243 10.2012 -0.00750732 10.2274V11.9912C0.733743 11.9912 1.33374 12.5912 1.33374 13.3324C1.33374 14.0674 0.733743 14.6737 -0.00750732 14.6737V16.4374C0.733743 16.4374 1.33374 17.0374 1.33374 17.7724C1.33374 18.5137 0.733743 19.1137 -0.00750732 19.1137V20.8837C0.733743 20.9099 1.30749 21.5287 1.28249 22.2699C1.26249 22.9737 0.696243 23.5337 -0.00750732 23.5599V25.3299C0.733743 25.3299 1.33374 25.9299 1.33374 26.6649C1.33374 27.4062 0.733743 28.0062 -0.00750732 28.0062V29.7762C0.733743 29.8024 1.30749 30.4212 1.28249 31.1562C1.26249 31.8599 0.696243 32.4324 -0.00750732 32.4524V34.2162C0.733743 34.2162 1.33374 34.8162 1.33374 35.5649C1.33374 36.2999 0.733743 36.8999 -0.00750732 36.8999V38.6699C0.728743 38.6699 1.33374 39.2687 1.33374 40.0049H3.09749C3.14374 39.2687 3.78249 38.7037 4.52374 38.7487C5.19999 38.7937 5.73374 39.3287 5.77999 40.0049H7.54374C7.58374 39.2687 8.21499 38.6962 8.94999 38.7349C9.63999 38.7687 10.1937 39.3212 10.2262 40.0049H11.99C12.03 39.2687 12.6612 38.6962 13.3962 38.7349C14.0862 38.7687 14.64 39.3212 14.6725 40.0049H16.4362C16.47 39.2687 17.0875 38.6899 17.8225 38.7149C18.5262 38.7412 19.0925 39.3087 19.1187 40.0049H20.8825C20.9225 39.2687 21.5537 38.6962 22.2962 38.7349C22.98 38.7687 23.5325 39.3212 23.5662 40.0049H25.33C25.37 39.2687 26.0012 38.6962 26.7437 38.7349C27.4275 38.7687 27.98 39.3212 28.0137 40.0049H29.7775C29.8175 39.2687 30.4487 38.6962 31.1912 38.7349C31.8812 38.7687 32.4275 39.3212 32.4662 40.0049H34.2312C34.2575 39.2687 34.8762 38.6899 35.6175 38.7149C36.3212 38.7412 36.8875 39.3087 36.9075 40.0049H38.6637C38.6637 39.6537 38.8075 39.3087 39.055 39.0612C39.3012 38.8124 39.6462 38.6699 40.005 38.6699V36.8999C39.2637 36.8537 38.7037 36.2212 38.7412 35.4799C38.7862 34.8037 39.3275 34.2637 40.005 34.2237V32.4599C39.2637 32.4199 38.69 31.7887 38.7287 31.0537C38.7625 30.3637 39.315 29.8099 40.005 29.7774V28.0074C39.2637 27.9612 38.7037 27.3237 38.7412 26.5874C38.7862 25.9112 39.3275 25.3712 40.005 25.3312V23.5612C39.2637 23.5274 38.69 22.8962 38.7287 22.1549C38.7625 21.4712 39.315 20.9187 40.005 20.8787V19.1224C39.2637 19.0762 38.7037 18.4374 38.7412 17.6962C38.7862 17.0199 39.3275 16.4799 40.005 16.4399V14.6762C39.2637 14.6362 38.69 14.0049 38.7287 13.2699C38.7625 12.5799 39.315 12.0262 40.005 11.9937V10.2299C39.2637 10.1837 38.7037 9.54615 38.7412 8.80365C38.7862 8.13365 39.3275 7.59365 40.005 7.5474V5.78365C39.2637 5.74365 38.69 5.1124 38.7287 4.3774C38.7625 3.6874 39.315 3.14115 40.005 3.10115L40.0062 3.09865ZM33.2237 19.4987L22.5525 29.8774C23.5162 30.0274 24.4537 30.2474 25.4562 30.2474C27.8975 30.2474 30.705 29.5062 32.6 28.7237L31.63 33.2999C28.8362 34.6412 27.1237 34.7537 25.4562 34.7537C23.6275 34.7537 21.8825 34.1537 20.1 34.1537C19.09 34.1537 17.6387 34.2324 16.7462 34.8249L14.8125 31.3999L25.8212 20.5012H13.1525L10.7362 31.8412H5.45124L10.9575 5.8774H28.4437L27.325 11.1187H15.1637L14.1225 15.9949H34.0825L33.2237 19.4987Z" fill="#BF0000"/>
</svg>
