<svg width="36" height="36" viewBox="0 0 36 36" fill="none" xmlns="http://www.w3.org/2000/svg">
<path d="M15.6 0.887978C9.048 1.89598 3.696 6.28798 1.656 12.36C0.815998 14.808 0.431998 17.76 0.719998 19.752C1.224 23.208 2.04 25.416 3.648 27.792C4.248 28.68 4.32 28.872 4.032 29.232C3.12 30.384 2.688 30.912 1.872 31.824C1.368 32.352 0.959998 32.88 0.959998 32.976C0.959998 33.048 1.368 33.072 1.872 33C2.352 32.952 3.96 32.76 5.4 32.616C8.04 32.328 8.064 32.328 9 32.928C11.808 34.656 14.472 35.376 18.12 35.376C21.24 35.376 23.352 34.896 25.8 33.672C30.456 31.32 33.552 27.6 34.992 22.56C35.544 20.616 35.52 15.24 34.944 13.32C34.464 11.784 33.384 9.50398 32.568 8.30398C31.32 6.50398 27.624 3.11998 26.904 3.11998C26.736 3.11998 26.64 6.21598 26.592 11.928L26.52 20.76L25.896 22.08C24.24 25.632 19.968 27.864 16.272 27.12C13.2 26.52 10.848 24.72 9.552 21.936C8.88 20.496 8.832 20.256 8.928 18.072C9 16.08 9.096 15.528 9.672 14.4C10.584 12.624 12.048 11.136 13.8 10.272C15.048 9.64798 15.576 9.52798 17.712 9.43198L20.16 9.28798V12.336V15.36H18.36C16.632 15.36 16.536 15.384 15.744 16.2C15.288 16.656 14.88 17.328 14.832 17.688C14.472 20.64 17.928 22.464 19.848 20.328C20.808 19.272 20.88 18.504 20.88 9.59998V1.00798L20.352 0.863976C19.776 0.719975 16.608 0.719975 15.6 0.887978Z" fill="#24ABE3"/>
</svg>
