<svg width="40" height="40" viewBox="0 0 40 40" fill="none" xmlns="http://www.w3.org/2000/svg">
<path d="M34 0H6C2.68629 0 0 2.68629 0 6V34C0 37.3137 2.68629 40 6 40H34C37.3137 40 40 37.3137 40 34V6C40 2.68629 37.3137 0 34 0Z" fill="#CC6699"/>
<path d="M20.1563 6.87505C12.6563 9.45317 7.8125 14.6875 8.28125 17.8125C8.75 20.9375 13.4375 23.4375 15.5469 25.0782C12.8125 26.4844 9.375 28.5938 9.45313 31.3282C9.60938 35.0782 13.6719 33.9063 15.3906 32.8125C17.1094 31.7188 18.8281 28.6719 17.7344 25.4688C20.1563 24.8438 22.2656 25.625 22.8906 26.0938C25.3125 27.8125 24.0625 29.7657 23.2031 30.0782C22.3438 30.3907 22.8906 30.5469 23.4375 30.3907C23.9844 30.2344 25.1563 29.4532 25.1563 28.125C25.1563 24.7657 21.5625 23.2032 17.1094 24.375C14.5313 21.6407 11.0156 20.3907 11.1719 17.4219C11.25 16.3282 11.6406 13.5157 18.5938 10C25.5469 6.48442 30.4688 7.89067 29.8438 11.0938C28.9063 15.9375 20.4688 19.2188 17.5 16.4063C17.3438 16.0938 16.7969 15.8594 17.1094 16.7188C18.6719 20.625 31.3281 18.8282 31.875 10.5469C32.0313 6.17192 25.7031 5.00005 20.1563 6.87505ZM13.4375 31.875C11.4844 32.5 11.5625 31.25 11.6406 30.7813C11.875 29.4532 12.9688 27.8125 16.25 26.1719C17.1875 29.1407 15.0781 31.4063 13.4375 31.875Z" fill="white"/>
</svg>
