<svg width="40" height="24" viewBox="0 0 40 24" fill="none" xmlns="http://www.w3.org/2000/svg">
<path d="M40 22.98C39.4179 23.2001 38.7752 23.1997 38.1934 22.9786C37.6116 22.7575 37.1308 22.3312 36.8417 21.78L31.0917 13.8283L30.2584 12.7166L23.5867 21.79C23.315 22.318 22.8603 22.7291 22.3075 22.9463C21.7548 23.1634 21.1419 23.1719 20.5834 22.97L29.18 11.4366L21.1834 1.01829C21.7583 0.811081 22.3872 0.808335 22.964 1.01051C23.5407 1.21269 24.0302 1.60744 24.35 2.12829L30.31 10.1783L36.3034 2.16162C36.5771 1.64294 37.032 1.24294 37.5814 1.03767C38.1308 0.832405 38.7365 0.836184 39.2834 1.04829L36.18 5.16662L31.9767 10.6383C31.86 10.7424 31.7665 10.87 31.7026 11.0128C31.6386 11.1555 31.6056 11.3102 31.6056 11.4666C31.6056 11.623 31.6386 11.7777 31.7026 11.9205C31.7665 12.0632 31.86 12.1908 31.9767 12.295L39.9834 22.9816L40 22.98ZM0.00335333 11.2933L0.703353 7.83496C2.62669 0.996625 10.4667 -1.84838 15.86 2.38496C19.0184 4.86662 19.8067 8.37996 19.6517 12.34H1.86002C1.57169 19.4116 6.67502 23.6816 13.2 21.5C14.2578 21.1192 15.2046 20.482 15.9556 19.6455C16.7066 18.8089 17.2384 17.7992 17.5034 16.7066C17.8484 15.5966 18.4167 15.4066 19.46 15.7266C19.2862 17.0806 18.8075 18.3775 18.0601 19.5198C17.3127 20.6621 16.316 21.6201 15.145 22.3216C13.2107 23.3797 10.9914 23.799 8.80439 23.5197C6.61739 23.2405 4.57468 22.2768 2.96835 20.7666C1.38007 18.9789 0.420147 16.7208 0.23502 14.3366C0.23502 13.945 0.101687 13.5783 0.0116867 13.2266C0.00357338 12.5828 -0.000315595 11.9389 1.99938e-05 11.295L0.00335333 11.2933ZM1.88169 10.8166H17.9717C17.8717 5.68996 14.6367 2.05329 10.3217 2.01996C5.51835 1.95329 2.08169 5.50996 1.87002 10.7933L1.88169 10.8166Z" fill="black"/>
</svg>
