<svg width="40" height="40" viewBox="0 0 40 40" fill="none" xmlns="http://www.w3.org/2000/svg">
<path d="M34 0H6C2.68629 0 0 2.68629 0 6V34C0 37.3137 2.68629 40 6 40H34C37.3137 40 40 37.3137 40 34V6C40 2.68629 37.3137 0 34 0Z" fill="#777BB3"/>
<path d="M12.1094 15.7811H7.57812C7.5274 15.7783 7.47712 15.7919 7.43485 15.8201C7.39257 15.8483 7.3606 15.8895 7.34375 15.9374L5.23438 26.953C5.23438 27.1874 5.46875 27.1874 5.46875 27.1874H7.8125C8.04688 27.1874 8.04688 27.0311 8.04688 27.0311L8.59375 24.2968H10.7031C13.9844 24.2968 15.625 22.1093 16.0156 20.1561C16.4062 18.203 16.0938 15.7811 12.1094 15.7811ZM13.125 19.9999C12.8125 21.4843 11.7969 22.1093 10.3906 22.1093H8.98438L9.84375 17.9686H11.25C13.3594 17.9686 13.2812 18.7499 13.125 19.9999Z" fill="black" stroke="white"/>
<path d="M21.4844 24.2969C21.1719 24.2969 21.25 23.9844 21.25 23.9844L22.1875 19.2188C22.1875 18.5938 22.6562 17.9688 20.7812 18.0469H19.375L18.2031 24.1406C18.2031 24.1406 18.2031 24.375 17.8906 24.375H15.625C15.3906 24.375 15.3906 24.1406 15.3906 24.1406L17.5781 13.125C17.5781 13.125 17.5781 12.9688 17.8906 12.9688H20.2344C20.4688 12.9688 20.3906 13.2031 20.3906 13.2031L19.8438 15.8594H21.875C24.6875 15.8594 25.3906 17.1875 25.1562 18.75L24.1406 24.1406C24.1406 24.1406 24.1406 24.375 23.75 24.375L21.4844 24.2969Z" fill="black" stroke="white"/>
<path d="M30.7812 15.7811H26.25C26.1993 15.7783 26.149 15.7919 26.1067 15.8201C26.0644 15.8483 26.0325 15.8895 26.0156 15.9374L23.9062 26.953C23.9062 27.1874 24.1406 27.1874 24.1406 27.1874H26.4844C26.7188 27.1874 26.7188 27.0311 26.7188 27.0311L27.2656 24.2968H29.375C32.6562 24.2968 34.2969 22.1093 34.6875 20.1561C35.0781 18.203 34.7656 15.7811 30.7812 15.7811ZM31.7969 19.9999C31.4844 21.4843 30.4688 22.1093 29.0625 22.1093H27.6562L28.5156 17.9686H29.9219C32.0312 17.9686 31.9531 18.7499 31.7969 19.9999Z" fill="black" stroke="white"/>
</svg>
