<svg width="36" height="40" viewBox="0 0 36 40" fill="none" xmlns="http://www.w3.org/2000/svg">
<path d="M3.54688 35.9375L0.34375 0H35.5781L32.375 35.9375L17.9219 40" fill="#E34F26"/>
<path d="M18 36.875L29.6406 33.6719L32.375 2.89062H18" fill="#EF652A"/>
<path d="M18 16.25H12.1406L11.75 11.7188H18V7.34375H6.90625L8.07812 20.7031H18V16.25ZM17.9219 27.7344L13 26.4062L12.6875 22.8906H8.3125L8.85938 29.8438L17.9219 32.3438V27.7344Z" fill="#EBEBEB"/>
<path d="M17.9219 16.25V20.7031H23.3906L22.8438 26.4062L17.9219 27.7344V32.3438L26.9844 29.8438L28.2344 16.25H17.9219ZM17.9219 7.34375V11.7188H28.625L29.0156 7.34375H17.9219Z" fill="white"/>
</svg>
