<svg width="35" height="33" viewBox="0 0 35 33" fill="none" xmlns="http://www.w3.org/2000/svg">
<path d="M27.2883 15.7958L24.8411 17.2043L27.2888 18.6142C28.8027 19.4863 29.7353 21.0977 29.7353 22.8415C29.7353 24.5854 28.8027 26.1968 27.2888 27.0689L27.2886 27.0691C25.7741 27.9414 23.9082 27.9414 22.3937 27.0691L19.9471 25.6597V20.0235L17.4999 21.432L15.0529 20.0235V28.4788L17.4999 29.8873L19.9476 31.2969C22.9759 33.0407 26.7066 33.0409 29.7349 31.2972C32.7635 29.5532 34.6294 26.3299 34.6294 22.8415V22.8412C34.6294 19.3531 32.7639 16.13 29.7354 14.3858L27.2883 12.9766V15.7958Z" fill="url(#paint0_linear_19_844)"/>
<path d="M12.6066 1.70273L12.6063 1.7029C9.57762 3.44693 7.71173 6.67025 7.71173 10.1586V12.9765L7.86103 12.8911L10.1587 11.5682L12.6059 12.9765V10.1585C12.6059 8.41462 13.5384 6.80331 15.0524 5.93121L15.0526 5.93104C16.5669 5.05859 18.4329 5.05859 19.9474 5.93104L19.9476 5.93121C21.4616 6.80331 22.3941 8.41462 22.3941 10.1585V12.9765L17.4999 15.7958L19.9471 17.2043V20.0234L24.8411 17.2043L27.2882 15.7958V10.1586C27.2882 6.67025 25.4224 3.44693 22.3935 1.7029L22.3934 1.70273C20.8792 0.830981 19.1896 0.39502 17.5001 0.39502C15.8104 0.39502 14.1207 0.830981 12.6066 1.70273Z" fill="url(#paint1_linear_19_844)"/>
<path d="M7.86104 12.8912L7.71174 12.9767L5.26457 14.3859C2.23611 16.1301 0.370575 19.3532 0.370575 22.8413V22.8416C0.370575 26.33 2.23646 29.5534 5.26527 31.2974C8.29338 33.041 12.0243 33.0409 15.0524 31.297L17.4999 29.8875L15.0529 28.479V25.6599L12.6063 27.0692C11.0918 27.9415 9.22589 27.9415 7.71139 27.0692L7.71122 27.0691C6.19725 26.197 5.26475 24.5857 5.26475 22.8418C5.26475 21.098 6.19725 19.4865 7.71122 18.6144L10.1587 17.2045L15.0529 20.0236V17.2045L17.4999 15.796L12.6059 12.9767L10.1587 11.5684L7.86104 12.8912Z" fill="url(#paint2_linear_19_844)"/>
<defs>
<linearGradient id="paint0_linear_19_844" x1="15.0529" y1="22.7908" x2="34.6294" y2="22.7908" gradientUnits="userSpaceOnUse">
<stop stop-color="#7F49DD"/>
<stop offset="0.5" stop-color="#00A3FF"/>
<stop offset="1" stop-color="#17F9DA"/>
</linearGradient>
<linearGradient id="paint1_linear_19_844" x1="7.71175" y1="10.2093" x2="27.2883" y2="10.2093" gradientUnits="userSpaceOnUse">
<stop stop-color="#7F49DD"/>
<stop offset="0.5" stop-color="#00A3FF"/>
<stop offset="1" stop-color="#17F9DA"/>
</linearGradient>
<linearGradient id="paint2_linear_19_844" x1="0.370592" y1="22.0867" x2="17.5" y2="22.0867" gradientUnits="userSpaceOnUse">
<stop stop-color="#7F49DD"/>
<stop offset="0.5" stop-color="#00A3FF"/>
<stop offset="1" stop-color="#17F9DA"/>
</linearGradient>
</defs>
</svg>
