<svg width="40" height="40" viewBox="0 0 40 40" fill="none" xmlns="http://www.w3.org/2000/svg">
<path d="M31.7808 0.547852H8.21921C3.9825 0.547852 0.547974 3.98238 0.547974 8.21908V31.7807C0.547974 36.0174 3.9825 39.452 8.21921 39.452H31.7808C36.0176 39.452 39.4521 36.0174 39.4521 31.7807V8.21908C39.4521 3.98238 36.0176 0.547852 31.7808 0.547852Z" fill="white" stroke="#013247" stroke-width="2"/>
<path d="M30.5034 27.314C29.1767 27.278 28.1633 27.4014 27.2969 27.7667C27.0507 27.8706 26.6581 27.8733 26.6179 28.1819C26.7532 28.3237 26.7742 28.5355 26.8818 28.7099C27.0886 29.0447 27.4379 29.4933 27.7495 29.7286C28.09 29.9856 28.4409 30.2605 28.806 30.483C29.4552 30.879 30.1801 31.1051 30.8053 31.5017C31.1737 31.7355 31.5397 32.0299 31.8992 32.2938C32.0769 32.4242 32.1964 32.6271 32.4273 32.7088C32.4273 32.6963 32.4273 32.6837 32.4273 32.6711C32.306 32.5167 32.2747 32.3042 32.1633 32.1429C31.9999 31.9795 31.8364 31.816 31.6728 31.6524C31.1934 31.016 30.5846 30.457 29.9376 29.9926C29.4216 29.6222 28.2666 29.1219 28.0513 28.5214C28.0387 28.5088 28.0263 28.4961 28.0135 28.4835C28.3794 28.4424 28.8078 28.3099 29.1455 28.2195C29.7127 28.0674 30.2196 28.1067 30.8053 27.9555C31.0693 27.88 31.3334 27.8044 31.5976 27.7291C31.5976 27.6787 31.5976 27.6286 31.5976 27.5782C31.3014 27.2743 31.0903 26.8723 30.7675 26.5973C29.9228 25.878 29.0007 25.1593 28.0513 24.5601C27.5248 24.2277 26.874 24.0117 26.316 23.7301C26.1283 23.6354 25.7986 23.5861 25.6745 23.4282C25.3814 23.0545 25.2218 22.5809 24.9957 22.1456C24.5221 21.2337 24.0571 20.2378 23.6376 19.2784C23.3513 18.6242 23.1644 17.979 22.8076 17.3921C21.0947 14.5758 19.2508 12.8759 16.3945 11.2051C15.7868 10.8498 15.055 10.7095 14.2818 10.5261C13.867 10.501 13.4518 10.4757 13.0369 10.4506C12.7836 10.3448 12.5201 10.0349 12.2824 9.88472C11.3362 9.28696 8.90915 7.98673 8.20831 9.69613C7.76579 10.7751 8.86966 11.828 9.26445 12.3747C9.54159 12.7583 9.89638 13.1883 10.0944 13.6196C10.2246 13.9031 10.2471 14.1873 10.3586 14.4874C10.6329 15.2263 10.8713 16.0302 11.2261 16.7131C11.4055 17.0586 11.6031 17.4226 11.8298 17.7317C11.9688 17.9213 12.207 18.0048 12.2446 18.2976C12.0117 18.6236 11.9984 19.1296 11.8675 19.5425C11.2779 21.4016 11.5002 23.7123 12.3579 25.0882C12.6211 25.5106 13.2409 26.4165 14.0932 26.0691C14.8387 25.7654 14.6722 24.8244 14.8855 23.9942C14.9337 23.8059 14.9041 23.6675 14.9986 23.5415C14.9986 23.554 14.9986 23.5666 14.9986 23.5792C15.225 24.0319 15.4513 24.4846 15.6777 24.9372C16.1802 25.7466 17.0722 26.5924 17.828 27.1632C18.2199 27.4592 18.5285 27.9709 19.0352 28.144C19.0352 28.1314 19.0352 28.119 19.0352 28.1062C19.0224 28.1062 19.01 28.1062 18.9974 28.1062C18.8992 27.9531 18.7456 27.8898 18.6202 27.7667C18.325 27.4773 17.9967 27.1175 17.7525 26.7859C17.0651 25.8526 16.4576 24.8311 15.9041 23.7678C15.6397 23.2602 15.41 22.7 15.1871 22.1833C15.1013 21.9841 15.1023 21.6829 14.9233 21.5797C14.6792 21.9583 14.3197 22.2644 14.131 22.7115C13.8292 23.4261 13.7902 24.2976 13.6784 25.2014C13.6122 25.2251 13.6416 25.2088 13.6028 25.239C13.0774 25.1123 12.8927 24.5714 12.6976 24.1074C12.2036 22.9339 12.1118 21.0443 12.5465 19.6935C12.6589 19.3441 13.1671 18.2433 12.9614 17.9204C12.8633 17.5982 12.5392 17.412 12.3579 17.1658C12.1335 16.8615 11.9095 16.4608 11.7542 16.1094C11.35 15.1944 11.1613 14.1673 10.7357 13.2424C10.5323 12.8003 10.1883 12.3529 9.90579 11.9598C9.59302 11.5244 9.24277 11.2036 9.00041 10.677C8.91419 10.4899 8.79705 10.1903 8.92495 9.99796C8.96562 9.86813 9.02293 9.81398 9.15134 9.77162C9.37016 9.6029 9.97957 9.82776 10.2075 9.92246C10.8125 10.1737 11.3174 10.413 11.8298 10.7525C12.0759 10.9156 12.3246 11.2311 12.6219 11.3184C12.735 11.3184 12.8483 11.3184 12.9614 11.3184C13.4925 11.4405 14.0875 11.3563 14.5836 11.507C15.4606 11.7735 16.2465 12.1881 16.9602 12.6388C19.1347 14.0117 20.9125 15.9662 22.1286 18.2976C22.3243 18.673 22.409 19.0313 22.5813 19.4294C22.929 20.2323 23.367 21.0586 23.7128 21.8437C24.0581 22.6271 24.3945 23.4177 24.8824 24.0697C25.1391 24.4123 26.1298 24.5962 26.5801 24.7864C26.8957 24.9198 27.4128 25.0588 27.7118 25.239C28.2829 25.5835 28.8362 25.9936 29.3718 26.3709C29.6396 26.5595 30.4624 26.9731 30.5034 27.314Z" fill="#00618A"/>
<path fill-rule="evenodd" clip-rule="evenodd" d="M13.6406 12.9407C13.3639 12.9356 13.1683 12.9709 12.9614 13.016C12.9614 13.0286 12.9614 13.0413 12.9614 13.0538C12.974 13.0538 12.9866 13.0538 12.9992 13.0538C13.1312 13.3249 13.3641 13.4994 13.5273 13.7329C13.653 13.997 13.7787 14.2611 13.9046 14.525C13.9171 14.5125 13.9298 14.4999 13.9423 14.4874C14.1759 14.3228 14.2829 14.0594 14.2818 13.6574C14.1881 13.5589 14.1744 13.4354 14.0932 13.3178C13.9853 13.1613 13.7766 13.0723 13.6406 12.9407Z" fill="#00618A"/>
</svg>
