<svg width="40" height="40" viewBox="0 0 40 40" fill="none" xmlns="http://www.w3.org/2000/svg">
<path fill-rule="evenodd" clip-rule="evenodd" d="M19.989 0.000280603C25.1404 0.000280603 30.2921 0.000280603 35.4435 0C36.09 0 36.7305 0.0561205 37.3508 0.245247C38.6956 0.655207 39.4078 1.61964 39.6869 2.94885C39.7976 3.47582 39.8291 4.01318 39.8302 4.55025C39.8384 8.15824 39.8446 11.7662 39.8448 15.3742C39.8451 21.9454 39.846 28.5165 39.8325 35.0877C39.8305 36.0075 39.7816 36.9374 39.3274 37.7753C38.8238 38.7046 38.1341 39.4401 37.0871 39.7636C36.898 39.822 36.7004 39.8885 36.5065 39.8885C36.0596 39.8888 35.6248 39.9996 35.1793 39.9996C25.0915 39.9988 15.0036 40.0047 4.91579 39.9887C4.0954 39.9873 3.26151 39.9275 2.48215 39.5936C2.32701 39.5271 2.17046 39.4712 2.03415 39.3674C1.04175 38.6112 0.368068 37.6681 0.223606 36.3919C0.171611 35.9317 0.155029 35.4741 0.155029 35.0139C0.156716 24.7887 0.157559 14.5636 0.162899 4.3384C0.16318 3.7452 0.169363 3.14191 0.351767 2.57425C0.837708 1.06124 1.90093 0.235426 3.47708 0.0676252C3.84329 0.0286215 4.21288 0.00336723 4.58078 0.00308663C9.71675 -0.00112241 14.853 0.000280603 19.989 0.000280603Z" fill="#FB7A24"/>
<path fill-rule="evenodd" clip-rule="evenodd" d="M20.1202 25.444C20.0074 26.1346 19.9282 26.7586 19.6802 27.3339C18.5188 30.0291 16.5397 31.6714 13.5726 31.9983C10.0653 32.3847 6.82606 30.2202 5.85209 26.8583C5.49909 25.6399 5.53445 24.3979 5.6624 23.158C5.79906 21.833 6.18938 20.5764 6.79884 19.3911C6.88611 19.2217 6.88443 19.0937 6.77527 18.9296C5.83946 17.5221 5.47636 15.9672 5.60825 14.2889C5.67868 13.3919 5.89643 12.5338 6.3033 11.7301C7.4953 9.37588 10.1125 7.37799 13.6178 7.70966C16.6999 8.00121 19.5548 10.6599 20.0004 13.65C20.0228 13.8001 20.0649 13.9475 20.1143 14.1689C20.1881 13.7679 20.2414 13.437 20.3104 13.1093C20.8845 10.3928 23.5435 7.55028 27.3126 7.5152C31.1327 7.47985 33.9617 10.4758 34.4954 13.2586C34.721 14.4346 34.6818 15.6095 34.4957 16.7838C34.3097 17.957 33.9651 19.0847 33.4614 20.1597C33.3503 20.3968 33.3618 20.5674 33.5041 20.7877C34.3268 22.0628 34.6899 23.4624 34.6433 24.9824C34.546 28.1541 32.3028 30.9983 29.2167 31.7422C24.9081 32.7804 21.6054 30.2036 20.4939 27.0861C20.3127 26.5788 20.2268 26.049 20.1202 25.444ZM27.9479 19.8718C27.9939 19.6925 28.1328 19.585 28.2327 19.4523C29.313 18.0168 29.8812 16.4131 29.7544 14.6074C29.6621 13.2894 28.5781 12.3612 27.266 12.4103C25.9531 12.4594 24.9637 13.4721 24.9451 14.7859C24.9437 14.8934 24.9502 15.0011 24.9434 15.108C24.8531 16.5082 24.0806 17.2751 22.9099 17.3607C22.6961 17.3764 22.4817 17.3955 22.2676 17.3961C20.7482 17.3994 19.229 17.3989 17.7095 17.3975C17.0459 17.3969 16.3879 17.469 15.756 17.664C12.806 18.5743 11.0859 20.5916 10.5163 23.5982C10.4035 24.1931 10.3019 24.8104 10.4969 25.4216C10.7767 26.2979 11.2983 26.9497 12.2218 27.1678C13.1789 27.3937 14.0126 27.1436 14.6748 26.3919C15.103 25.9059 15.238 25.3284 15.27 24.6945C15.3527 23.0642 16.2406 22.2494 17.721 22.2617C19.9922 22.2805 22.2637 22.2656 24.5352 22.2673C24.9384 22.2676 24.942 22.2729 24.944 22.6717C24.9479 23.4083 24.9252 24.1457 24.9536 24.8814C24.9999 26.0824 26.0566 27.0808 27.2817 27.1159C28.545 27.1521 29.671 26.2176 29.7533 24.9979C29.8243 23.9422 29.8198 22.8799 29.7505 21.8234C29.6969 21.0055 29.2543 20.4226 28.5046 20.0842C28.3247 20.0034 28.1356 19.9428 27.9479 19.8718ZM13.7104 17.3938C14.1989 17.3938 14.5976 17.3893 14.9961 17.3958C15.1936 17.3989 15.2669 17.3138 15.2652 17.1202C15.2587 16.3539 15.2983 15.5851 15.2495 14.8215C15.1849 13.8142 14.6493 13.086 13.7115 12.7187C12.7499 12.3421 11.8699 12.5571 11.1257 13.2673C10.3782 13.9808 10.2786 14.8535 10.5401 15.8087C10.7803 16.6864 11.348 17.185 12.2406 17.3357C12.7591 17.423 13.2805 17.3812 13.7104 17.3938Z" fill="white"/>
</svg>
