<svg width="40" height="40" viewBox="0 0 40 40" fill="none" xmlns="http://www.w3.org/2000/svg">
<path d="M34 0H6C2.68629 0 0 2.68629 0 6V34C0 37.3137 2.68629 40 6 40H34C37.3137 40 40 37.3137 40 34V6C40 2.68629 37.3137 0 34 0Z" fill="white"/>
<path d="M34.4375 18.6641L21.3281 5.56252C21.1489 5.38252 20.9358 5.2397 20.7012 5.14225C20.4666 5.04479 20.215 4.99463 19.961 4.99463C19.7069 4.99463 19.4553 5.04479 19.2207 5.14225C18.9861 5.2397 18.7731 5.38252 18.5938 5.56252L15.875 8.28908L19.3281 11.7344C19.7354 11.5965 20.1732 11.5756 20.5917 11.6743C21.0103 11.7729 21.3927 11.987 21.6955 12.2923C21.9983 12.5976 22.2094 12.9817 22.3046 13.401C22.3999 13.8203 22.3756 14.2579 22.2344 14.6641L25.5547 17.9844C26.0512 17.8131 26.5914 17.8172 27.0853 17.996C27.5791 18.1747 27.9968 18.5173 28.2687 18.9667C28.5406 19.4161 28.6503 19.945 28.5795 20.4654C28.5087 20.9859 28.2616 21.4663 27.8796 21.8267C27.4975 22.187 27.0034 22.4056 26.4798 22.4459C25.9561 22.4861 25.4344 22.3457 25.0017 22.0481C24.569 21.7504 24.2514 21.3134 24.1018 20.8099C23.9523 20.3065 23.9797 19.7669 24.1797 19.2813L21.0781 16.1797V24.3438C21.5483 24.5777 21.9241 24.9656 22.143 25.443C22.3618 25.9203 22.4105 26.4583 22.2808 26.9672C22.1512 27.476 21.8511 27.9251 21.4306 28.2396C21.0101 28.5541 20.4944 28.715 19.9697 28.6955C19.4449 28.676 18.9427 28.4772 18.5467 28.1324C18.1506 27.7875 17.8847 27.3174 17.7933 26.8003C17.7018 26.2832 17.7903 25.7503 18.044 25.2905C18.2977 24.8308 18.7013 24.4718 19.1875 24.2735V16.0391C18.9065 15.9244 18.6509 15.7551 18.4357 15.5411C18.2205 15.327 18.0498 15.0724 17.9335 14.792C17.8173 14.5116 17.7578 14.2109 17.7585 13.9073C17.7592 13.6038 17.82 13.3034 17.9375 13.0235L14.5391 9.62502L5.5547 18.6094C5.19356 18.9712 4.99072 19.4615 4.99072 19.9727C4.99072 20.4839 5.19356 20.9742 5.5547 21.336L18.6719 34.4375C18.8512 34.6175 19.0642 34.7603 19.2989 34.8578C19.5335 34.9552 19.785 35.0054 20.0391 35.0054C20.2931 35.0054 20.5447 34.9552 20.7793 34.8578C21.0139 34.7603 21.227 34.6175 21.4063 34.4375L34.4453 21.3906C34.8065 21.0289 35.0093 20.5386 35.0093 20.0274C35.0093 19.5162 34.8065 19.0259 34.4453 18.6641" fill="#F05133"/>
</svg>
