<svg width="36" height="33" viewBox="0 0 36 33" fill="none" xmlns="http://www.w3.org/2000/svg">
<path d="M13.7805 1.27005C13.0122 1.60005 11.6951 3.25005 10.7073 5.12005C6.31709 13.5901 17.1829 21.1801 23.9878 14.2501C25.5244 12.8201 26.7317 10.2901 26.7317 8.75005C26.7317 3.14005 19.4878 -1.03995 13.7805 1.27005ZM22.122 4.46005C24.9756 6.44005 25.1951 8.97005 22.6708 11.7201C19.8171 14.9101 16.9634 14.1401 15.0976 9.63005C13.4512 5.89005 13.4512 5.45005 15.3171 4.13005C17.8415 2.26005 19.1586 2.37005 22.122 4.46005Z" fill="#8002BE"/>
<path d="M5.21953 17.22C2.80489 18.32 0.390259 22.39 0.390259 25.25C0.390259 26.13 1.59758 28.11 2.91465 29.76C6.5366 33.83 11.8049 33.83 15.4268 29.76C18.8293 25.8 18.6098 23.05 14.7683 19.09C11.3659 15.79 9.06099 15.24 5.21953 17.22ZM13.7805 21.07C16.3049 23.38 16.3049 25.25 13.561 28C10.3781 31.19 8.18294 30.75 6.31709 26.24C5.00002 23.16 5.00002 21.95 5.98782 20.74C7.63416 18.65 11.2561 18.76 13.7805 21.07Z" fill="#8002BE"/>
<path d="M23.7683 16.9999C19.378 18.7599 17.6219 25.4699 20.5854 29.3199C22.4512 31.8499 27.2805 33.6099 29.6951 32.7299C36.1707 30.4199 37.8171 22.2799 32.6585 18.2099C29.4756 15.6799 27.6097 15.4599 23.7683 16.9999ZM32.7683 21.8399C34.1951 23.9299 34.3049 25.0299 33.4268 26.7899C32.1097 29.2099 28.4878 30.7499 26.6219 29.6499C24.8658 28.5499 23.3293 23.5999 23.9878 21.2899C24.9756 18.0999 30.6829 18.5399 32.7683 21.8399Z" fill="#8002BE"/>
</svg>
