<svg width="40" height="40" viewBox="0 0 40 40" fill="none" xmlns="http://www.w3.org/2000/svg">
<path d="M34 0H6C2.68629 0 0 2.68629 0 6V34C0 37.3137 2.68629 40 6 40H34C37.3137 40 40 37.3137 40 34V6C40 2.68629 37.3137 0 34 0Z" fill="#1B1817"/>
<path d="M26.1719 38.9843C27.2656 38.9843 27.1094 40.3124 27.1094 40.3124H12.8906C12.8906 40.3124 12.7344 38.9843 13.8281 38.9843C14.8438 38.9843 15.0781 38.5156 15.0781 38.0468L15 34.1406C9.45314 35.3906 8.28126 31.9531 8.28126 31.9531C7.34376 29.6093 6.09376 29.0624 6.09376 29.0624C4.21876 27.8124 6.17189 27.8124 6.17189 27.8124C8.20314 27.9687 9.29689 29.8437 9.29689 29.8437C11.0156 32.8906 13.9063 32.0312 15.0781 31.5624C15.2344 30.2343 15.7813 29.3749 16.3281 28.8281C11.875 28.3593 7.26564 26.6406 7.26564 18.9843C7.26564 16.7968 8.04689 14.9999 9.29689 13.5937C9.06251 13.1249 8.43751 11.0937 9.53126 8.35931C9.53126 8.35931 11.1719 7.81244 15 10.3906C18.2813 9.45306 21.7188 9.45306 25 10.3906C28.8281 7.81244 30.4688 8.35931 30.4688 8.35931C31.5625 11.0937 30.9375 13.1249 30.7031 13.5937C31.9531 14.9999 32.7344 16.7968 32.7344 18.9843C32.7344 26.6406 28.0469 28.3593 23.5938 28.8281C24.375 29.4531 25 30.7031 25 32.5781L24.9219 38.0468C24.9219 38.5156 25.1563 38.9843 26.1719 38.9843Z" fill="white"/>
</svg>
